<?xml version="1.0" encoding="utf-8"?>
<!-- Generator: Adobe Illustrator 23.0.2, SVG Export Plug-In . SVG Version: 6.00 Build 0)  -->
<svg version="1.1" id="Layer_1" xmlns="http://www.w3.org/2000/svg" xmlns:xlink="http://www.w3.org/1999/xlink" x="0px" y="0px"
	 viewBox="0 0 622.5 157.1" style="enable-background:new 0 0 622.5 157.1;" xml:space="preserve">
<style type="text/css">
	.st0{fill:#783996;}
	.st1{fill:#F99E43;}
	.st2{fill:#F99D1D;}
	.st3{fill:none;stroke:#000000;stroke-width:2;stroke-miterlimit:10;}
</style>
<g>
	<g>
		<g>
			<path class="st0" d="M86.2,154.9c0.7,1.1-0.3,2.4-1.6,2.2c-9.2-1.8-18.6-9.6-21.2-18.8c-3.6-12.5-3.4-25,2.8-36.7
				c2.5-4.8,6.4-8.9,9.9-13c7.2-8.4,14.7-16.6,21.9-25.1c4.5-5.3,8.2-11.2,10.5-17.8c3.4-9.7,1.3-16.2-6.9-22.3l0,0
				c-0.5-0.4-0.6-1.1-0.3-1.6c0.1-0.1,0.1-0.2,0.2-0.3c3.5-4.8,7.5-9,12.4-12.4C125,1.1,137,0.1,149.6,5.2c4.2,1.7,8.5,4.3,12.7,4.8
				c4.2,0.5,16.2,0.9,22.3,2.1c5.8,0.9,9.1,4.3,9.3,5c-1.3-0.1-1.2-0.5-16.1,0c-5.7,0.1-17.8,3.1-21.1,9.1c-4.3,5.9-5.9,12.7-7,19.7
				c-1.1,6.6-2.2,13.2-4.2,19.5c-5.1,16-16.1,25.5-32.7,28.5c-9.4,1.7-18.8,2-28.2,2c-1.6,0-3.3,0.1-4.9,0.6
				c-4.5,1.2-6.8,4.7-7.8,8.9c-1.7,6.9-0.8,13.8,1,20.5C75.6,136.3,80.7,145.7,86.2,154.9L86.2,154.9z M146.4,14.6
				c0.1-2.7-2.5-4.9-5.3-4.1c-1.4,0.4-2.5,1.6-2.9,3c-0.6,2.6,1.3,5,3.9,5.1C144.4,18.8,146.3,16.9,146.4,14.6z"/>
			<path class="st0" d="M82.9,45.7c-10.2,5-20.2,10.2-30.6,14.7c-10.8,4.7-22.1,4.8-33.5,1.6C8.3,59.1,2.5,51.9,0.1,41.6l0,0
				c-0.5-1.9,1-3.8,3-3.8h95C93,40.4,88,43.2,82.9,45.7z"/>
			<path class="st0" d="M6.4,7c-1-4.3,3-8,7.2-6.7c2.7,0.8,5.5,1.7,8.2,2.5c19,5.9,75,26.3,76.1,27C97,29.9,96.6,30,96.1,30
				c-14.9,0-29.7,0.1-44.6,0c-8.6-0.1-17.2-0.7-25.6-2.9C14,23.8,8.4,15.6,6.4,7z"/>
			<path class="st0" d="M97.1,49.3C92,57.7,85.7,65.1,79.2,72.4c-3.3,3.7-6.5,7.5-10.1,11c-9.3,9.1-20.5,12.4-33.3,9.7
				c-1.9-0.4-3.7-1.1-5.3-2.1c-3.7-2.2-3.5-7.5,0.3-9.5c22.9-12,45.6-23.9,68.4-35.8C98.5,46.9,97.8,48.1,97.1,49.3z"/>
			<path class="st0" d="M132.8,138.8c2,1.3,1.3,4.3-1.1,4.6c-8.6,1.1-16.4-1.1-23.4-7.1c-6.5-5.6-11.7-12.3-17.1-18.9
				c-3-3.7-5.8-7.5-8.5-11.6C99.4,116.8,116,127.8,132.8,138.8z"/>
			<path class="st0" d="M78.8,113.5c10,14.3,20.9,27.3,33.8,38.7c1.8,1.6,0.7,4.6-1.6,4.7c-3.9,0.1-7.7-0.3-11.4-1.7
				c-2.8-1.1-5.3-2.8-6.7-5.6C89,142,78.8,114.4,78.8,113.5z"/>
			<path class="st0" d="M89.9,102c16.7,5.2,33.3,10.5,50.3,15.8c1.5,0.5,1.6,2.5,0.2,3.2c-6.1,2.9-12.2,3.6-18.7,1
				c-3.2-1.3-6.4-2.8-9.3-4.6C104.9,112.5,97.4,107.2,89.9,102z"/>
		</g>
	</g>
	<path class="st1" d="M45.8,101.3"/>
	<g>
		<path class="st2" d="M75,99.3c0.1-0.1,0.1-0.2,0.2-0.2l-0.5-0.7C74.8,98.7,74.9,99,75,99.3z"/>
	</g>
	<g>
		<path class="st2" d="M93.7,124.8c-1.1-1.3-2.2-2.6-3.2-4l-1.4-1.7c-0.9-1.1-1.8-2.2-2.6-3.3l-2.6,0c2.2,3.1,4.5,6,6.7,8.9H93.7z"
			/>
		<path class="st2" d="M95.6,127l-2.6,0.7c0.7,0.9,1.4,1.8,2.2,2.6c3.1,2.6,6.5,4.9,10.1,6.9"/>
	</g>
	<g>
		<path class="st2" d="M112.9,120.9c-0.6-0.4-1.3-0.7-1.8-1.1c-2.8-1.8-5.6-3.7-8.4-5.6l-2.5-0.1l10.4,6.9H112.9z"/>
		<path class="st2" d="M142.1,115.8c1.2,0.7,1.9,2,2,3.4c0.1,1.8-0.9,3.5-2.5,4.3c-4.1,1.9-7.9,2.9-11.8,2.9c-3,0-6-0.6-9-1.7
			c-3-1.2-5.6-2.4-7.9-3.8l-2.3,0l23.7,15.6c1.9,1.2,2.7,3.4,2.2,5.6c-0.3,1.1-0.8,2-1.6,2.7c0.1,0,0.2,0,0.4,0
			c13.5,0,25.9-4.2,36.2-11.5l-37.4-1.9H174c5-3.9,9.4-8.6,13-13.9L142.1,115.8z"/>
	</g>
	<path class="st2" d="M172.2,53.9h19.2c-2-3.9-4.4-7.6-7.1-11.1l-12.5-0.6h11.9c-6-7.3-13.7-13.3-22.5-17.3
		c-0.8,0.8-1.6,1.8-2.4,2.8c-1.6,2.2-2.8,4.6-3.8,7.2h19.5l-19.7,0.4c-1.2,3.3-1.9,6.9-2.6,10.9c0,0.3-0.1,0.6-0.2,0.9h16.4
		l-16.4,0.3c-1,5.9-2.1,12.5-4.1,18.7c-0.3,0.8-0.5,1.6-0.8,2.4l40.7,1.2h-41.1c-5.9,14.8-17.1,23.8-33.6,26.8
		c-8.6,1.6-17.3,1.9-25,2l2.4,0.8l15.4,4.9h58l-53.3,1.5l4,1.3l18.7,5.9h56.6c2.8-5.1,5-10.5,6.4-16.3l-57.6-3h58.2
		c0.7-3.7,1-7.5,1-11.4c0-9.1-1.9-17.6-5.4-25.4L172.2,53.9z"/>
</g>
<g>
	<g>
		<g>
			<g>
				<path class="st0" d="M235.3,74.9c-10,0-18.3-5.8-18.3-18.3v-22h8.7v22c0,6.8,3.6,10.4,9.7,10.4c6.5,0,8.8-4.4,8.8-10.4v-22h8.7
					v22C252.9,68.6,246,74.9,235.3,74.9z"/>
				<path class="st0" d="M276.2,61h-6.4V74h-8.8V34.6h18.7c9.5,0,14.6,6.4,14.6,13.3c0,5.1-1.6,9.7-9.1,12.4l10.8,13.1V74h-9.7
					L276.2,61z M279.9,53.6c4.1,0,5.8-3,5.8-5.5c0-2.7-1.9-6-5.9-6h-9.9v11.5H279.9z"/>
				<path class="st0" d="M335,45.2c0,3.3-1.4,6.3-5.2,8.1c4.2,1.5,6.5,5.5,6.5,9.4c0,0.7-0.1,1.4-0.2,2c-1.2,6.4-6.4,9.2-14.4,9.2
					h-19.8V34.6h19.4C328.8,34.6,335,37.9,335,45.2z M326.3,46.1c0-2.3-1.6-4-5-4h-10.8v7.7h10.7C324.7,49.9,326.3,48.5,326.3,46.1z
					 M327.1,61.8c0-2.8-2-4.6-5.9-4.6h-10.7v9.1h10.8C325.3,66.3,327.1,64.6,327.1,61.8z"/>
				<path class="st0" d="M228.9,93.7l11.6,25.8H237l-2.5-5.7h-14.7l-2.5,5.7h-3.5l11.6-25.8H228.9z M227.1,97l-6.1,13.9h12.2
					L227.1,97z"/>
				<path class="st0" d="M261.2,93.7v25.8h-2.8l-0.1-3.3c-0.7,1.2-1.7,2.1-2.9,2.7c-1.2,0.6-2.5,0.9-3.9,0.9c-2.7,0-4.9-0.8-6.6-2.5
					c-1.7-1.7-2.6-4-2.6-6.9c0-3,0.9-5.3,2.6-6.9c1.7-1.7,3.9-2.5,6.6-2.5c1.4,0,2.7,0.3,4,0.9c1.3,0.6,2.2,1.5,2.8,2.7V93.7
					L261.2,93.7L261.2,93.7z M251.6,103.8c-1.8,0-3.4,0.6-4.6,1.7c-1.2,1.2-1.8,2.8-1.8,4.8c0,2,0.6,3.6,1.8,4.8
					c1.2,1.2,2.7,1.8,4.6,1.8s3.4-0.6,4.6-1.8c1.2-1.2,1.8-2.8,1.8-4.8c0-1.9-0.6-3.5-1.9-4.7C254.9,104.4,253.4,103.8,251.6,103.8
					L251.6,103.8z"/>
				<path class="st0" d="M268.2,101.3l2.9,7.1l3.1,7.9l3.1-7.8l2.9-7.1h3.3l-7.7,18.2h-3.3l-7.7-18.2H268.2z"/>
				<path class="st0" d="M302.8,116.6c-0.9,1.1-2,1.9-3.5,2.4c-1.4,0.6-2.9,0.8-4.4,0.8c-2.8,0-5.2-0.9-6.9-2.6
					c-1.8-1.7-2.7-4-2.7-6.9c0-2.8,0.9-5,2.7-6.8c1.8-1.8,4-2.7,6.8-2.7c2.9,0,5.3,0.9,7,2.7c1.7,1.8,2.4,4.5,2.1,7.9h-15.5
					c0.2,1.6,0.9,3,2.1,4c1.2,1,2.7,1.5,4.5,1.5c1.1,0,2.2-0.2,3.3-0.6c1.1-0.4,1.9-1,2.5-1.7L302.8,116.6L302.8,116.6z
					 M301.1,109.1c-0.1-1.7-0.7-3.1-1.8-4s-2.6-1.4-4.4-1.4c-1.6,0-3.1,0.5-4.3,1.4c-1.2,1-1.9,2.3-2.2,4L301.1,109.1L301.1,109.1z"
					/>
				<path class="st0" d="M308.2,101.3h2.8l0.1,2.9c1.5-2.1,3.6-3.2,6.2-3.2c2.4,0,4.3,0.8,5.8,2.3c1.5,1.5,2.2,3.6,2.2,6.2v10.1h-3
					v-10c0-1.8-0.5-3.2-1.5-4.2c-1-1-2.3-1.5-4.1-1.5c-1.6,0-3,0.6-4,1.7c-1,1.1-1.6,2.5-1.6,4.2v9.8h-3V101.3L308.2,101.3z"/>
				<path class="st0" d="M335.2,101.4h5.6v2.6h-5.7v9.6c0,2.3,1,3.5,2.9,3.5c0.8,0,1.7-0.2,2.5-0.7l0.9,2.5
					c-1.2,0.6-2.4,0.9-3.5,0.9c-3.8,0.1-5.7-2-5.7-6.2v-9.6h-3.6v-2.6h3.6v-5l3-0.3V101.4z"/>
				<path class="st0" d="M358.9,119.5l-0.1-2.9c-1.5,2.1-3.7,3.2-6.3,3.2c-2.4,0-4.3-0.8-5.7-2.3c-1.5-1.5-2.2-3.6-2.2-6.2v-10.1h3
					v10c0,1.8,0.5,3.2,1.5,4.2c1,1,2.3,1.5,4.1,1.5c1.6,0,3-0.6,4-1.7c1-1.1,1.6-2.5,1.6-4.2v-9.8h3v18.2H358.9L358.9,119.5z"/>
				<path class="st0" d="M370,101.3l0.2,2.7c1.1-2,2.9-3,5.6-3c1.6,0,3,0.4,4.2,1.4l-1.4,2.6c-1-0.7-2-1-3.2-1
					c-1.5,0-2.8,0.5-3.8,1.5c-1,1-1.5,2.3-1.5,3.9v10.1h-3v-18.2L370,101.3L370,101.3z"/>
				<path class="st0" d="M398.6,116.6c-0.9,1.1-2,1.9-3.5,2.4c-1.4,0.6-2.9,0.8-4.4,0.8c-2.8,0-5.2-0.9-6.9-2.6
					c-1.8-1.7-2.7-4-2.7-6.9c0-2.8,0.9-5,2.7-6.8c1.8-1.8,4-2.7,6.8-2.7c2.9,0,5.3,0.9,7,2.7c1.7,1.8,2.4,4.5,2.1,7.9h-15.5
					c0.2,1.6,0.9,3,2.1,4s2.7,1.5,4.5,1.5c1.1,0,2.2-0.2,3.3-0.6c1.1-0.4,1.9-1,2.5-1.7L398.6,116.6L398.6,116.6z M396.8,109.1
					c-0.1-1.7-0.7-3.1-1.8-4c-1.1-0.9-2.6-1.4-4.4-1.4c-1.6,0-3.1,0.5-4.3,1.4c-1.2,1-1.9,2.3-2.2,4L396.8,109.1L396.8,109.1z"/>
				<path class="st0" d="M414,93.7h18.1v2.9h-15v8.1h14.3v3h-14.3v8.7h15.5v3.1H414V93.7z"/>
				<path class="st0" d="M441.7,110.2l-6.1-8.8v-0.1h3.4l4.7,6.9l4.6-6.9h3.5v0.1l-6.2,8.8l6.7,9.2v0.1h-3.5l-5.1-7.4l-5.2,7.4h-3.4
					v-0.1L441.7,110.2z"/>
				<path class="st0" d="M455.6,101.4h2.9l0.1,3.5c0.7-1.2,1.7-2.1,2.9-2.8c1.3-0.7,2.6-1,4.1-1c2.7,0,4.8,0.9,6.5,2.7
					c1.7,1.7,2.5,4,2.5,6.7c0,2.8-0.9,5.1-2.6,6.9c-1.7,1.7-3.9,2.6-6.7,2.6c-1.4,0-2.7-0.3-4-0.9c-1.3-0.6-2.2-1.5-2.9-2.8v11.9
					h-2.9V101.4z M469.8,115.3c1.2-1.2,1.8-2.8,1.8-4.8c0-2-0.6-3.6-1.8-4.8c-1.2-1.2-2.7-1.7-4.6-1.7c-1.9,0-3.4,0.6-4.6,1.8
					c-1.2,1.2-1.8,2.8-1.8,4.7c0,1.9,0.6,3.4,1.8,4.7c1.2,1.2,2.7,1.9,4.6,1.9C467.1,117.1,468.6,116.5,469.8,115.3z"/>
				<path class="st0" d="M495.3,116.6c-0.9,1.1-2,1.9-3.5,2.4s-2.9,0.8-4.4,0.8c-2.8,0-5.2-0.9-6.9-2.6c-1.8-1.7-2.7-4-2.7-6.9
					c0-2.8,0.9-5,2.7-6.8c1.8-1.8,4-2.7,6.8-2.7c2.9,0,5.3,0.9,7,2.7c1.7,1.8,2.4,4.5,2.1,7.9H481c0.2,1.6,0.9,3,2.1,4
					c1.2,1,2.7,1.5,4.5,1.5c1.1,0,2.2-0.2,3.3-0.6c1.1-0.4,1.9-1,2.5-1.7L495.3,116.6L495.3,116.6z M493.6,109.1
					c-0.1-1.7-0.7-3.1-1.8-4c-1.1-0.9-2.6-1.4-4.4-1.4c-1.6,0-3.1,0.5-4.3,1.4c-1.2,1-1.9,2.3-2.2,4L493.6,109.1L493.6,109.1z"/>
				<path class="st0" d="M518.5,93.7v25.8h-2.8l-0.1-3.3c-0.7,1.2-1.7,2.1-2.9,2.7c-1.2,0.6-2.5,0.9-3.9,0.9c-2.7,0-4.9-0.8-6.6-2.5
					c-1.7-1.7-2.6-4-2.6-6.9c0-3,0.9-5.3,2.6-6.9c1.7-1.7,3.9-2.5,6.6-2.5c1.4,0,2.7,0.3,4,0.9c1.3,0.6,2.2,1.5,2.8,2.7V93.7
					L518.5,93.7L518.5,93.7z M509,103.8c-1.8,0-3.4,0.6-4.6,1.7c-1.2,1.2-1.8,2.8-1.8,4.8c0,2,0.6,3.6,1.8,4.8
					c1.2,1.2,2.7,1.8,4.6,1.8c1.8,0,3.4-0.6,4.6-1.8c1.2-1.2,1.8-2.8,1.8-4.8c0-1.9-0.6-3.5-1.9-4.7
					C512.3,104.4,510.8,103.8,509,103.8L509,103.8z"/>
				<path class="st0" d="M524.6,94c0.7-0.3,1.3-0.3,2,0c0.7,0.3,1,0.9,1,1.8c0,0.8-0.3,1.4-1,1.7c-0.7,0.3-1.3,0.3-2,0
					c-0.7-0.3-1-0.9-1-1.8S524,94.3,524.6,94z M524.1,119.5h3v-18.3h-3V119.5z"/>
				<path class="st0" d="M537.7,101.4h5.6v2.6h-5.7v9.6c0,2.3,1,3.5,2.9,3.5c0.8,0,1.7-0.2,2.5-0.7l0.9,2.5
					c-1.2,0.6-2.4,0.9-3.5,0.9c-3.8,0.1-5.7-2-5.7-6.2v-9.6h-3.6v-2.6h3.6v-5l3-0.3V101.4z"/>
				<path class="st0" d="M547.8,94c0.7-0.3,1.3-0.3,2,0c0.7,0.3,1,0.9,1,1.8c0,0.8-0.3,1.4-1,1.7c-0.7,0.3-1.3,0.3-2,0
					c-0.7-0.3-1-0.9-1-1.8S547.1,94.3,547.8,94z M547.2,119.5h3v-18.3h-3V119.5z"/>
				<path class="st0" d="M557.3,103.6c1.8-1.8,4-2.7,6.8-2.7c2.8,0,5,0.9,6.8,2.7c1.8,1.8,2.7,4.1,2.7,6.9c0,2.8-0.9,5-2.7,6.8
					c-1.8,1.8-4,2.6-6.8,2.6c-2.7,0-5-0.9-6.8-2.6c-1.8-1.8-2.7-4-2.7-6.8C554.6,107.7,555.5,105.4,557.3,103.6z M568.7,105.6
					c-1.2-1.3-2.8-1.9-4.6-1.9c-1.9,0-3.4,0.6-4.6,1.9c-1.2,1.3-1.8,2.9-1.8,4.9c0,1.9,0.6,3.5,1.8,4.7c1.2,1.2,2.7,1.8,4.6,1.8
					c1.9,0,3.4-0.6,4.6-1.8c1.2-1.2,1.8-2.8,1.9-4.7C570.5,108.5,569.9,106.8,568.7,105.6z"/>
				<path class="st0" d="M577.9,101.3h2.8l0.1,2.9c1.5-2.1,3.6-3.2,6.2-3.2c2.4,0,4.3,0.8,5.8,2.3c1.5,1.5,2.2,3.6,2.2,6.2v10.1h-3
					v-10c0-1.8-0.5-3.2-1.5-4.2c-1-1-2.3-1.5-4.1-1.5c-1.6,0-3,0.6-4,1.7c-1,1.1-1.6,2.5-1.6,4.2v9.8h-3V101.3L577.9,101.3z"/>
				<path class="st0" d="M611.9,105.4c-1.3-1.2-3-1.8-5.1-1.8c-1.3,0-2.4,0.2-3.3,0.7c-0.8,0.5-1.3,1.1-1.2,2c0,1.4,1.5,2.3,4.5,2.7
					c0.9,0.1,1.6,0.2,2.1,0.3c0.6,0.1,1.2,0.3,2,0.5c0.8,0.3,1.4,0.6,1.9,0.9c0.5,0.4,0.9,0.9,1.2,1.5c0.3,0.7,0.5,1.4,0.5,2.3
					c0,1.7-0.8,3.1-2.2,4c-1.4,0.9-3.3,1.4-5.4,1.4c-3.6,0-6.3-1.1-8.1-3.4l1.7-2.1c1.5,1.9,3.7,2.8,6.5,2.8c1.2,0,2.3-0.2,3.2-0.7
					c0.9-0.4,1.4-1.2,1.4-2.2c0-0.9-0.4-1.6-1.2-2c-0.8-0.4-2.1-0.7-3.7-0.9c-1-0.1-1.9-0.3-2.7-0.5c-0.7-0.2-1.5-0.5-2.2-0.8
					c-0.8-0.4-1.3-0.9-1.7-1.5c-0.4-0.7-0.6-1.4-0.6-2.4c0-1.2,0.4-2.3,1.1-3.1c0.8-0.8,1.7-1.4,2.7-1.8c1.1-0.3,2.2-0.5,3.5-0.5
					c2.8,0,5.1,0.8,6.9,2.4L611.9,105.4L611.9,105.4z"/>
				<path class="st0" d="M619.4,116c0.7-0.3,1.4-0.3,2.1,0c0.7,0.4,1,1,1,1.8c0,0.9-0.3,1.5-1,1.8c-0.7,0.3-1.4,0.3-2.1,0
					c-0.7-0.4-1-1-1-1.8C618.4,117,618.7,116.4,619.4,116z"/>
			</g>
			<g>
				<path class="st3" d="M449.6,21.1"/>
				<path class="st3" d="M428.1,6.4"/>
			</g>
		</g>
		<g>
			<path class="st0" d="M422.3,33.8c-4.9,0-8.8,4-8.8,8.8v5.2l0.6,12.4l-19.9-25.6h-7.5V74h8.9V61.7l-0.3-12.9L414.7,74h7.5
				L422.3,33.8L422.3,33.8z"/>
		</g>
	</g>
	<path class="st0" d="M315.1,123.8l-12,26.9h0c6.7,0.1,12.9-3.8,15.5-10l7.1-16.8H315.1z"/>
	<path class="st0" d="M364.7,34.6h-9.6l-26.3,58.6h9.5l11.5-25.9H370v0c1.7,4.1,5.8,6.8,10.2,6.8h2.2L364.7,34.6z M353.1,59.4
		l6.8-16l6.8,16H353.1z"/>
</g>
</svg>
